M48
METRIC,LZ,000.000
;FILE_FORMAT=3:3
;TYPE=PLATED
;Layer: PTH_Through
;EasyEDA v6.5.48, 2025-01-21 20:06:33
;1a15377ceeac4a35b7f9d19b891e4bc2,48bb6e63cd8b433992a3f5e94ad137e8,10
;Gerber Generator version 0.2
;Holesize 1 = 0.305 mm
T01C0.305
;Holesize 2 = 0.915 mm
T02C0.915
;Holesize 3 = 1.000 mm
T03C1.000
%
G05
G90
T01
X069977Y077216
X073025Y066802
X061849Y064381
T02
X012827Y051435
X012827Y053975
X012827Y056515
X012827Y059055
X012827Y061595
X012827Y064135
X075692Y075946
X075692Y073406
X075692Y070866
X075692Y068326
X075692Y065786
X075692Y063246
X065532Y060071
X065532Y057531
X065532Y054991
X065532Y052451
X065532Y049911
X065532Y047371
X065532Y044831
X065532Y042291
X065532Y039751
X065532Y037211
X063754Y076581
X063754Y078613
X063754Y074549
X063754Y072517
X063754Y080645
X063754Y082677
X063754Y084709
X063754Y086741
X063754Y088773
X063754Y070485
X041910Y072517
X041910Y074549
X041910Y076581
X041910Y078613
X041910Y080645
X041910Y082677
X041910Y084709
X041910Y086741
X041910Y088773
X041910Y070485
T03
X019304Y078740
X037084Y078740
X019304Y076200
X019304Y073660
X019304Y071120
X019304Y068580
X019304Y066040
X019304Y063500
X019304Y060960
X019304Y058420
X019304Y055880
X019304Y053340
X019304Y050800
X019304Y048260
X019304Y045720
X019304Y043180
X019304Y040640
X019304Y038100
X019304Y035560
X019304Y033020
X019304Y030480
X037084Y076200
X037084Y073660
X037084Y071120
X037084Y068580
X037084Y066040
X037084Y063500
X037084Y060960
X037084Y058420
X037084Y055880
X037084Y053340
X037084Y050800
X037084Y048260
X037084Y045720
X037084Y043180
X037084Y040640
X037084Y038100
X037084Y035560
X037084Y032893
X037084Y030480
X028194Y030734
X030734Y030734
X025654Y030734
M30
