G04 Layer: TopLayer*
G04 EasyEDA v6.5.48, 2025-01-21 20:06:33*
G04 1a15377ceeac4a35b7f9d19b891e4bc2,48bb6e63cd8b433992a3f5e94ad137e8,10*
G04 Gerber Generator version 0.2*
G04 Scale: 100 percent, Rotated: No, Reflected: No *
G04 Dimensions in millimeters *
G04 leading zeros omitted , absolute positions ,4 integer and 5 decimal *
%FSLAX45Y45*%
%MOMM*%

%ADD10C,0.5000*%
%ADD11C,1.5240*%
%ADD12R,1.5240X1.5240*%
%ADD13C,1.3500*%
%ADD14C,1.2000*%
%ADD15C,0.6096*%

%LPD*%
D10*
X3708400Y3289274D02*
G01*
X4102100Y3289274D01*
X4102100Y5867400D01*
X5994400Y5867400D01*
X6019800Y6273800D01*
X6629400Y6870700D01*
X7289800Y6896100D01*
X7480300Y7086600D01*
X7569200Y7086600D01*
X1930400Y7365974D02*
G01*
X1511300Y7365974D01*
X1511300Y6642100D01*
X1282700Y6413500D01*
X1930400Y4571974D02*
G01*
X1625600Y4571974D01*
X1625600Y5054600D01*
X1282700Y5397500D01*
X1282700Y5651500D02*
G01*
X863600Y5651500D01*
X863600Y4826000D01*
X1231900Y4826000D01*
X1231900Y4483100D01*
X1765300Y4483100D01*
X1930425Y4317974D01*
X7569200Y7340600D02*
G01*
X6616700Y7975600D01*
X6616700Y8356600D01*
X6616700Y8636000D01*
X6375400Y8877300D01*
X6375400Y7251700D02*
G01*
X5270500Y7251700D01*
X5270500Y9156700D01*
X3479800Y9156700D01*
X3479800Y8686800D01*
X2540000Y7747000D01*
X2057450Y7747000D01*
X1930425Y7619974D01*
X3708400Y3048000D02*
G01*
X4292600Y3048000D01*
X4292600Y5613400D01*
X5880100Y5613400D01*
X6273800Y6007100D01*
X6273800Y6286500D01*
X6667500Y6680200D01*
X7378700Y6680200D01*
X7467600Y6769100D01*
X7505700Y6769100D01*
X7569200Y6832600D01*
D11*
G01*
X1282700Y5143500D03*
G01*
X1282700Y5397500D03*
G01*
X1282700Y5651500D03*
G01*
X1282700Y5905500D03*
D12*
G01*
X1282700Y6159500D03*
D11*
G01*
X1282700Y6413500D03*
D12*
G01*
X7569200Y7594600D03*
D11*
G01*
X7569200Y7340600D03*
G01*
X7569200Y7086600D03*
G01*
X7569200Y6832600D03*
G01*
X7569200Y6578600D03*
G01*
X7569200Y6324600D03*
D12*
G01*
X6553200Y6007100D03*
D11*
G01*
X6553200Y5753100D03*
G01*
X6553200Y5499074D03*
G01*
X6553174Y5245100D03*
G01*
X6553200Y4991100D03*
G01*
X6553174Y4737100D03*
G01*
X6553174Y4483100D03*
G01*
X6553200Y4229125D03*
G01*
X6553174Y3975100D03*
G01*
X6553174Y3721125D03*
G01*
X6375400Y7658100D03*
G01*
X6375400Y7861300D03*
G01*
X6375400Y7454900D03*
G01*
X6375400Y7251700D03*
G01*
X6375400Y8064500D03*
G01*
X6375400Y8267700D03*
G01*
X6375400Y8470900D03*
G01*
X6375400Y8674100D03*
G01*
X6375400Y8877300D03*
G01*
X6375400Y7048500D03*
G01*
X4191000Y7251700D03*
G01*
X4191000Y7454874D03*
G01*
X4191000Y7658100D03*
G01*
X4191000Y7861300D03*
G01*
X4191000Y8064500D03*
G01*
X4191000Y8267700D03*
G01*
X4191000Y8470900D03*
G01*
X4191000Y8674100D03*
G01*
X4191000Y8877274D03*
G01*
X4191000Y7048500D03*
D13*
G01*
X1930400Y7873974D03*
G01*
X3708400Y7873974D03*
G01*
X1930425Y7619974D03*
G01*
X1930400Y7365974D03*
G01*
X1930425Y7112000D03*
G01*
X1930400Y6858000D03*
G01*
X1930425Y6604000D03*
G01*
X1930400Y6350000D03*
G01*
X1930400Y6096000D03*
G01*
X1930400Y5842000D03*
G01*
X1930400Y5587974D03*
G01*
X1930425Y5334000D03*
G01*
X1930400Y5080000D03*
G01*
X1930425Y4825974D03*
G01*
X1930400Y4571974D03*
G01*
X1930425Y4317974D03*
G01*
X1930400Y4063974D03*
G01*
X1930425Y3809974D03*
G01*
X1930425Y3555974D03*
G01*
X1930400Y3301974D03*
G01*
X1930425Y3047974D03*
G01*
X3708400Y7619974D03*
G01*
X3708400Y7366000D03*
G01*
X3708400Y7112000D03*
G01*
X3708425Y6858000D03*
G01*
X3708400Y6604000D03*
G01*
X3708425Y6350000D03*
G01*
X3708400Y6096000D03*
G01*
X3708425Y5842000D03*
G01*
X3708400Y5588000D03*
G01*
X3708400Y5333974D03*
G01*
X3708425Y5079974D03*
G01*
X3708400Y4825974D03*
G01*
X3708425Y4571974D03*
G01*
X3708400Y4317974D03*
G01*
X3708425Y4063974D03*
G01*
X3708400Y3809974D03*
G01*
X3708425Y3555974D03*
G01*
X3708400Y3289274D03*
G01*
X3708400Y3047974D03*
D14*
G01*
X2819425Y3073374D03*
G01*
X3073425Y3073400D03*
G01*
X2565425Y3073400D03*
D15*
G01*
X6997700Y7721600D03*
G01*
X7302500Y6680200D03*
G01*
X6184900Y6438061D03*
M02*
