G04 Layer: TopSolderMaskLayer*
G04 EasyEDA v6.5.48, 2025-01-21 20:06:33*
G04 1a15377ceeac4a35b7f9d19b891e4bc2,48bb6e63cd8b433992a3f5e94ad137e8,10*
G04 Gerber Generator version 0.2*
G04 Scale: 100 percent, Rotated: No, Reflected: No *
G04 Dimensions in millimeters *
G04 leading zeros omitted , absolute positions ,4 integer and 5 decimal *
%FSLAX45Y45*%
%MOMM*%

%AMMACRO1*4,1,8,-0.7831,-0.8128,-0.8128,-0.7828,-0.8128,0.7831,-0.7831,0.8128,0.7828,0.8128,0.8128,0.7831,0.8128,-0.7828,0.7828,-0.8128,-0.7831,-0.8128,0*%
%ADD10C,1.6256*%
%ADD11MACRO1*%
%ADD12C,1.4516*%
%ADD13C,1.3016*%

%LPD*%
D10*
G01*
X1282700Y5143500D03*
G01*
X1282700Y5397500D03*
G01*
X1282700Y5651500D03*
G01*
X1282700Y5905500D03*
D11*
G01*
X1282700Y6159500D03*
D10*
G01*
X1282700Y6413500D03*
D11*
G01*
X7569200Y7594600D03*
D10*
G01*
X7569200Y7340600D03*
G01*
X7569200Y7086600D03*
G01*
X7569200Y6832600D03*
G01*
X7569200Y6578600D03*
G01*
X7569200Y6324600D03*
D11*
G01*
X6553200Y6007100D03*
D10*
G01*
X6553200Y5753100D03*
G01*
X6553200Y5499074D03*
G01*
X6553174Y5245100D03*
G01*
X6553200Y4991100D03*
G01*
X6553174Y4737100D03*
G01*
X6553174Y4483100D03*
G01*
X6553200Y4229125D03*
G01*
X6553174Y3975100D03*
G01*
X6553174Y3721125D03*
G01*
X6375400Y7658100D03*
G01*
X6375400Y7861300D03*
G01*
X6375400Y7454900D03*
G01*
X6375400Y7251700D03*
G01*
X6375400Y8064500D03*
G01*
X6375400Y8267700D03*
G01*
X6375400Y8470900D03*
G01*
X6375400Y8674100D03*
G01*
X6375400Y8877300D03*
G01*
X6375400Y7048500D03*
G01*
X4191000Y7251700D03*
G01*
X4191000Y7454874D03*
G01*
X4191000Y7658100D03*
G01*
X4191000Y7861300D03*
G01*
X4191000Y8064500D03*
G01*
X4191000Y8267700D03*
G01*
X4191000Y8470900D03*
G01*
X4191000Y8674100D03*
G01*
X4191000Y8877274D03*
G01*
X4191000Y7048500D03*
D12*
G01*
X1930400Y7873974D03*
G01*
X3708400Y7873974D03*
G01*
X1930425Y7619974D03*
G01*
X1930400Y7365974D03*
G01*
X1930425Y7112000D03*
G01*
X1930400Y6858000D03*
G01*
X1930425Y6604000D03*
G01*
X1930400Y6350000D03*
G01*
X1930400Y6096000D03*
G01*
X1930400Y5842000D03*
G01*
X1930400Y5587974D03*
G01*
X1930425Y5334000D03*
G01*
X1930400Y5080000D03*
G01*
X1930425Y4825974D03*
G01*
X1930400Y4571974D03*
G01*
X1930425Y4317974D03*
G01*
X1930400Y4063974D03*
G01*
X1930425Y3809974D03*
G01*
X1930425Y3555974D03*
G01*
X1930400Y3301974D03*
G01*
X1930425Y3047974D03*
G01*
X3708400Y7619974D03*
G01*
X3708400Y7366000D03*
G01*
X3708400Y7112000D03*
G01*
X3708425Y6858000D03*
G01*
X3708400Y6604000D03*
G01*
X3708425Y6350000D03*
G01*
X3708400Y6096000D03*
G01*
X3708425Y5842000D03*
G01*
X3708400Y5588000D03*
G01*
X3708400Y5333974D03*
G01*
X3708425Y5079974D03*
G01*
X3708400Y4825974D03*
G01*
X3708425Y4571974D03*
G01*
X3708400Y4317974D03*
G01*
X3708425Y4063974D03*
G01*
X3708400Y3809974D03*
G01*
X3708425Y3555974D03*
G01*
X3708400Y3289274D03*
G01*
X3708400Y3047974D03*
D13*
G01*
X2819425Y3073374D03*
G01*
X3073425Y3073400D03*
G01*
X2565425Y3073400D03*
M02*
